<svg xmlns="http://www.w3.org/2000/svg" viewBox="0 0 24 24" id="Video-Game-Boxing--Streamline-Ultimate" height="24" width="24"><desc>Video Game Boxing Streamline Icon: https://streamlinehq.com</desc><g><path d="M6.5 5.5v2.25a2.75 2.75 0 0 0 2.75 2.75h7.25a5 5 0 0 0 0 -10h-9a5 5 0 0 0 -5 5V12a9 9 0 0 0 4 7.5h10a9 9 0 0 0 4 -7.5V8.5" fill="none" stroke="#000000" stroke-linecap="round" stroke-linejoin="round" stroke-width="1"></path><path d="M14 15a5.26 5.26 0 0 0 0.5 -2.25 5.13 5.13 0 0 0 -0.5 -2.25" fill="none" stroke="#000000" stroke-linecap="round" stroke-linejoin="round" stroke-width="1"></path><path d="M6.5 19.5v3a1 1 0 0 0 1 1h8a1 1 0 0 0 1 -1v-3" fill="none" stroke="#000000" stroke-linecap="round" stroke-linejoin="round" stroke-width="1"></path><path d="m14 23.5 0 -2.5" fill="none" stroke="#000000" stroke-linecap="round" stroke-linejoin="round" stroke-width="1"></path></g></svg>
