<svg xmlns="http://www.w3.org/2000/svg" fill="none" viewBox="0 0 24 24" id="Golf-Ball--Streamline-Ultimate" height="24" width="24"><desc>Golf Ball Streamline Icon: https://streamlinehq.com</desc><path stroke="#000000" stroke-linecap="round" stroke-linejoin="round" d="M12 15.9692c4.2579 0 7.7096 -3.4517 7.7096 -7.70955 0 -4.2579 -3.4517 -7.709601 -7.7096 -7.709601 -4.2579 0 -7.7096 3.451701 -7.7096 7.709601 0 4.25785 3.4517 7.70955 7.7096 7.70955Z" stroke-width="1"></path><path stroke="#000000" stroke-linecap="round" stroke-linejoin="round" d="M16.9739 17.0426c-1.4945 0.924 -3.2168 1.4134 -4.9739 1.4134 -1.7571 0 -3.47943 -0.4894 -4.97394 -1.4134" stroke-width="1"></path><path stroke="#000000" stroke-linecap="round" stroke-linejoin="round" d="M12 18.4562V23.45" stroke-width="1"></path><path stroke="#000000" d="M15.4818 5.29525c-0.1374 0 -0.2487 -0.11135 -0.2487 -0.2487s0.1113 -0.2487 0.2487 -0.2487" stroke-width="1"></path><path stroke="#000000" d="M15.4817 5.29525c0.1374 0 0.2487 -0.11135 0.2487 -0.2487s-0.1113 -0.2487 -0.2487 -0.2487" stroke-width="1"></path><path stroke="#000000" d="M16.9739 8.75704c-0.1373 0 -0.2487 -0.11135 -0.2487 -0.2487s0.1114 -0.2487 0.2487 -0.2487" stroke-width="1"></path><path stroke="#000000" d="M16.9739 8.75704c0.1374 0 0.2487 -0.11135 0.2487 -0.2487s-0.1113 -0.2487 -0.2487 -0.2487" stroke-width="1"></path><path stroke="#000000" d="M13.4922 9.27437c-0.1374 0 -0.2487 -0.11134 -0.2487 -0.2487 0 -0.13735 0.1113 -0.24869 0.2487 -0.24869" stroke-width="1"></path><path stroke="#000000" d="M13.4922 9.27437c0.1373 0 0.2487 -0.11134 0.2487 -0.2487 0 -0.13735 -0.1114 -0.24869 -0.2487 -0.24869" stroke-width="1"></path><g><path stroke="#000000" d="M14.9844 12.7561c-0.1374 0 -0.2487 -0.1114 -0.2487 -0.2487 0 -0.1374 0.1113 -0.2487 0.2487 -0.2487" stroke-width="1"></path><path stroke="#000000" d="M14.9844 12.7561c0.1373 0 0.2487 -0.1114 0.2487 -0.2487 0 -0.1374 -0.1114 -0.2487 -0.2487 -0.2487" stroke-width="1"></path></g><g><path stroke="#000000" d="M11.0052 12.7561c-0.1373 0 -0.2487 -0.1114 -0.2487 -0.2487 0 -0.1374 0.1114 -0.2487 0.2487 -0.2487" stroke-width="1"></path><path stroke="#000000" d="M11.0052 12.7561c0.1374 0 0.2487 -0.1114 0.2487 -0.2487 0 -0.1374 -0.1113 -0.2487 -0.2487 -0.2487" stroke-width="1"></path></g></svg>
