<svg xmlns="http://www.w3.org/2000/svg" fill="none" viewBox="0 0 24 24" id="Casino-Lucky-Horseshoe--Streamline-Ultimate" height="24" width="24"><desc>Casino Lucky Horseshoe Streamline Icon: https://streamlinehq.com</desc><path stroke="#000000" stroke-linecap="round" stroke-linejoin="round" d="M12 23.5c2.5196 0 4.9359 -1.0009 6.7175 -2.7825C20.4991 18.9359 21.5 16.5196 21.5 14c0 0 0 -6 -3 -10.5v-2c0 -0.26522 -0.1054 -0.51957 -0.2929 -0.707107C18.0196 0.605357 17.7652 0.5 17.5 0.5h-3c-0.2652 0 -0.5196 0.105357 -0.7071 0.292893C13.6054 0.98043 13.5 1.23478 13.5 1.5v2.7c0.0002 0.19151 0.0554 0.37894 0.159 0.54 1.6596 2.45366 2.6373 5.3043 2.833 8.26 0 2.5 -2.011 5.5 -4.492 5.5s-4.492 -3 -4.492 -5.5c0.19626 -2.9547 1.17394 -5.8042 2.833 -8.257 0.1042 -0.16192 0.1594 -0.35047 0.159 -0.543V1.5c0 -0.26522 -0.1054 -0.51957 -0.2929 -0.707107C10.0196 0.605357 9.76522 0.5 9.5 0.5h-3c-0.26522 0 -0.51957 0.105357 -0.70711 0.292893C5.60536 0.98043 5.5 1.23478 5.5 1.5v2C2.5 8 2.5 14 2.5 14c0 2.5196 1.00089 4.9359 2.78249 6.7175C7.06408 22.4991 9.48044 23.5 12 23.5v0Z" stroke-width="1"></path><path stroke="#000000" stroke-linecap="round" stroke-linejoin="round" d="M5.5 3.5h3" stroke-width="1"></path><path stroke="#000000" stroke-linecap="round" stroke-linejoin="round" d="M15.5 3.5h3" stroke-width="1"></path><path stroke="#000000" d="M6.5 7.25c-0.13807 0 -0.25 -0.11193 -0.25 -0.25s0.11193 -0.25 0.25 -0.25" stroke-width="1"></path><path stroke="#000000" d="M6.5 7.25c0.13807 0 0.25 -0.11193 0.25 -0.25s-0.11193 -0.25 -0.25 -0.25" stroke-width="1"></path><path stroke="#000000" d="M5 15.25c-0.13807 0 -0.25 -0.1119 -0.25 -0.25s0.11193 -0.25 0.25 -0.25" stroke-width="1"></path><path stroke="#000000" d="M5 15.25c0.13807 0 0.25 -0.1119 0.25 -0.25s-0.11193 -0.25 -0.25 -0.25" stroke-width="1"></path><path stroke="#000000" d="M12 21.25c-0.1381 0 -0.25 -0.1119 -0.25 -0.25s0.1119 -0.25 0.25 -0.25" stroke-width="1"></path><path stroke="#000000" d="M12 21.25c0.1381 0 0.25 -0.1119 0.25 -0.25s-0.1119 -0.25 -0.25 -0.25" stroke-width="1"></path><g><path stroke="#000000" d="M19 15.25c-0.1381 0 -0.25 -0.1119 -0.25 -0.25s0.1119 -0.25 0.25 -0.25" stroke-width="1"></path><path stroke="#000000" d="M19 15.25c0.1381 0 0.25 -0.1119 0.25 -0.25s-0.1119 -0.25 -0.25 -0.25" stroke-width="1"></path></g><g><path stroke="#000000" d="M17.5 7.25c-0.1381 0 -0.25 -0.11193 -0.25 -0.25s0.1119 -0.25 0.25 -0.25" stroke-width="1"></path><path stroke="#000000" d="M17.5 7.25c0.1381 0 0.25 -0.11193 0.25 -0.25s-0.1119 -0.25 -0.25 -0.25" stroke-width="1"></path></g></svg>
