<svg width="128" height="24" viewBox="0 0 128 24" fill="none" xmlns="http://www.w3.org/2000/svg">
<path d="M0 4C0 1.79086 1.79086 0 4 0H24V24H4C1.79086 24 0 22.2091 0 20V4Z" fill="#00E5C4"/>
<g clip-path="url(#clip0_2322_15355)">
<path d="M12 4.6665C10.5496 4.6665 9.13174 5.0966 7.92578 5.90239C6.71982 6.70819 5.77989 7.8535 5.22485 9.19349C4.6698 10.5335 4.52458 12.008 4.80754 13.4305C5.0905 14.853 5.78893 16.1597 6.81451 17.1853C7.8401 18.2109 9.14677 18.9093 10.5693 19.1923C11.9918 19.4752 13.4663 19.33 14.8063 18.7749C16.1463 18.2199 17.2916 17.28 18.0974 16.074C18.9032 14.8681 19.3333 13.4502 19.3333 11.9998C19.3333 11.0368 19.1436 10.0832 18.7751 9.19349C18.4065 8.30377 17.8664 7.49535 17.1854 6.81439C16.5044 6.13342 15.696 5.59325 14.8063 5.22472C13.9166 4.85619 12.963 4.6665 12 4.6665Z" stroke="#111111" stroke-linecap="round" stroke-linejoin="round"/>
<path d="M9.97587 15.099L8.73083 11.2531L11.9999 8.87646L15.2689 11.2531L14.0239 15.099H9.97587Z" stroke="#111111" stroke-linecap="round" stroke-linejoin="round"/>
<path d="M14.8038 5.22168L12.0001 7.1114L9.19653 5.22168" stroke="#111111" stroke-linecap="round" stroke-linejoin="round"/>
<path d="M13.6942 19.1366L15.0885 16.2906L18.2722 15.8018" stroke="#111111" stroke-linecap="round" stroke-linejoin="round"/>
<path d="M19.3099 12.5925L17.076 10.3677L17.5552 7.21338" stroke="#111111" stroke-linecap="round" stroke-linejoin="round"/>
<path d="M12 7.11133V8.87654" stroke="#111111" stroke-linecap="round" stroke-linejoin="round"/>
<path d="M15.2692 11.2529L17.0761 10.3677" stroke="#111111" stroke-linecap="round" stroke-linejoin="round"/>
<path d="M4.69019 12.5925L6.92408 10.3677L6.44497 7.21338" stroke="#111111" stroke-linecap="round" stroke-linejoin="round"/>
<path d="M8.73088 11.2529L6.92395 10.3677" stroke="#111111" stroke-linecap="round" stroke-linejoin="round"/>
<path d="M14.0239 15.0986L15.0884 16.2902" stroke="#111111" stroke-linecap="round" stroke-linejoin="round"/>
<path d="M10.3057 19.1366L8.91143 16.2906L5.72778 15.8018" stroke="#111111" stroke-linecap="round" stroke-linejoin="round"/>
<path d="M9.9761 15.0986L8.91162 16.2902" stroke="#111111" stroke-linecap="round" stroke-linejoin="round"/>
</g>
<mask id="path-14-inside-1_2322_15355" fill="white">
<path d="M24 0H100.389V24H24V0Z"/>
</mask>
<path d="M24 0V1H100.389V0V-1H24V0ZM100.389 24V23H24V24V25H100.389V24Z" fill="url(#paint0_linear_2322_15355)" mask="url(#path-14-inside-1_2322_15355)"/>
<path d="M89.2487 17.2403C89.11 17.2403 89.0514 17.1763 89.0727 17.0483L90.4327 8.52025H88.8167C88.678 8.52025 88.6247 8.45625 88.6567 8.32825L88.8807 6.95225C88.902 6.82425 88.966 6.76025 89.0727 6.76025H94.2087C94.3474 6.76025 94.406 6.82425 94.3847 6.95225L94.1607 8.32825C94.1394 8.45625 94.07 8.52025 93.9527 8.52025H92.3527L90.9927 17.0483C90.9714 17.1763 90.902 17.2403 90.7847 17.2403H89.2487Z" fill="black"/>
<path d="M84.2251 17.3361C83.2331 17.3361 82.5345 17.0587 82.1291 16.5041C81.7238 15.9387 81.6331 15.1654 81.8571 14.1841C81.8891 14.0561 81.9531 13.9921 82.0491 13.9921H83.5691C83.6971 13.9921 83.7505 14.0561 83.7291 14.1841C83.6438 14.6534 83.6491 15.0107 83.7451 15.2561C83.8411 15.5014 84.0438 15.6241 84.3531 15.6241C84.6518 15.6241 84.8758 15.5281 85.0251 15.3361C85.1851 15.1334 85.2651 14.8347 85.2651 14.4401C85.2651 14.1734 85.2118 13.9281 85.1051 13.7041C85.0091 13.4801 84.8491 13.2507 84.6251 13.0161L83.5371 11.8961C83.1958 11.5441 82.9505 11.1814 82.8011 10.8081C82.6518 10.4347 82.5771 9.99206 82.5771 9.48006C82.5771 8.6054 82.8225 7.9174 83.3131 7.41606C83.8038 6.91473 84.4971 6.66406 85.3931 6.66406C86.3531 6.66406 87.0411 6.93073 87.4571 7.46406C87.8731 7.9974 87.9851 8.7494 87.7931 9.72006C87.7611 9.85873 87.6918 9.92806 87.5851 9.92806H86.0331C85.9051 9.92806 85.8518 9.85873 85.8731 9.72006C85.9691 9.28273 85.9638 8.95206 85.8571 8.72806C85.7611 8.4934 85.5745 8.37606 85.2971 8.37606C85.0518 8.37606 84.8598 8.4614 84.7211 8.63206C84.5931 8.80273 84.5291 9.03206 84.5291 9.32006C84.5291 9.58673 84.5771 9.81606 84.6731 10.0081C84.7691 10.1894 84.9185 10.3921 85.1211 10.6161L86.2411 11.7681C86.5931 12.1307 86.8438 12.4934 86.9931 12.8561C87.1531 13.2081 87.2331 13.6507 87.2331 14.1841C87.2331 15.1761 86.9665 15.9494 86.4331 16.5041C85.8998 17.0587 85.1638 17.3361 84.2251 17.3361Z" fill="black"/>
<path d="M77.6419 17.3361C76.6285 17.3361 75.8925 17.0267 75.4339 16.4081C74.9752 15.7787 74.8365 14.8721 75.0179 13.6881L75.5939 10.0401C75.7859 8.88806 76.1539 8.04006 76.6979 7.49606C77.2419 6.9414 78.0205 6.66406 79.0339 6.66406C80.0365 6.66406 80.7725 6.97873 81.2419 7.60806C81.7112 8.22673 81.8499 9.1334 81.6579 10.3281L81.0819 13.9601C80.8899 15.1121 80.5165 15.9654 79.9619 16.5201C79.4179 17.0641 78.6445 17.3361 77.6419 17.3361ZM77.8339 15.5601C78.2285 15.5601 78.5272 15.4321 78.7299 15.1761C78.9325 14.9094 79.0819 14.4827 79.1779 13.8961L79.7539 10.2801C79.8499 9.64006 79.8232 9.17606 79.6739 8.88806C79.5352 8.5894 79.2579 8.44006 78.8419 8.44006C78.4579 8.44006 78.1592 8.5734 77.9459 8.84006C77.7432 9.09606 77.5939 9.5174 77.4979 10.1041L76.9219 13.7201C76.8152 14.3601 76.8365 14.8294 76.9859 15.1281C77.1459 15.4161 77.4285 15.5601 77.8339 15.5601Z" fill="black"/>
<path d="M70.5794 17.3361C69.566 17.3361 68.83 17.0267 68.3714 16.4081C67.9127 15.7787 67.774 14.8721 67.9554 13.6881L68.5314 10.0401C68.7234 8.88806 69.0914 8.04006 69.6354 7.49606C70.1794 6.9414 70.958 6.66406 71.9714 6.66406C72.974 6.66406 73.71 6.97873 74.1794 7.60806C74.6487 8.22673 74.7874 9.1334 74.5954 10.3281L74.0194 13.9601C73.8274 15.1121 73.454 15.9654 72.8994 16.5201C72.3554 17.0641 71.582 17.3361 70.5794 17.3361ZM70.7714 15.5601C71.166 15.5601 71.4647 15.4321 71.6674 15.1761C71.87 14.9094 72.0194 14.4827 72.1154 13.8961L72.6914 10.2801C72.7874 9.64006 72.7607 9.17606 72.6114 8.88806C72.4727 8.5894 72.1954 8.44006 71.7794 8.44006C71.3954 8.44006 71.0967 8.5734 70.8834 8.84006C70.6807 9.09606 70.5314 9.5174 70.4354 10.1041L69.8594 13.7201C69.7527 14.3601 69.774 14.8294 69.9234 15.1281C70.0834 15.4161 70.366 15.5601 70.7714 15.5601Z" fill="black"/>
<path d="M61.1376 17.2403C60.9883 17.2403 60.9296 17.1763 60.9616 17.0483L62.5616 6.95225C62.5936 6.82425 62.6629 6.76025 62.7696 6.76025H64.7536C65.6603 6.76025 66.3376 6.94159 66.7856 7.30425C67.2443 7.66692 67.4736 8.22159 67.4736 8.96825C67.4736 9.64025 67.3296 10.2109 67.0416 10.6803C66.7536 11.1389 66.3269 11.4856 65.7616 11.7203V11.7523C66.1883 11.9016 66.5083 12.1416 66.7216 12.4723C66.9456 12.7923 67.0576 13.2403 67.0576 13.8163C67.0576 14.4989 66.9189 15.1016 66.6416 15.6243C66.3749 16.1363 65.9696 16.5363 65.4256 16.8243C64.8923 17.1016 64.2363 17.2403 63.4576 17.2403H61.1376ZM63.1056 15.5923H63.6496C64.1509 15.5923 64.5189 15.4216 64.7536 15.0803C64.9989 14.7389 65.1216 14.3016 65.1216 13.7683C65.1216 13.4056 65.0363 13.1283 64.8656 12.9363C64.7056 12.7336 64.4443 12.6323 64.0816 12.6323H63.5856L63.1056 15.5923ZM63.8096 11.1283H64.2896C64.5669 11.1283 64.7963 11.0483 64.9776 10.8883C65.1696 10.7283 65.3083 10.5149 65.3936 10.2483C65.4896 9.97092 65.5376 9.67759 65.5376 9.36825C65.5376 9.02692 65.4629 8.78159 65.3136 8.63225C65.1749 8.48292 64.9456 8.40825 64.6256 8.40825H64.2416L63.8096 11.1283Z" fill="black"/>
<path d="M53.2627 17.2403C53.124 17.2403 53.0653 17.1763 53.0867 17.0483L54.6867 6.95225C54.7187 6.82425 54.788 6.76025 54.8947 6.76025H59.2947C59.444 6.76025 59.5027 6.82425 59.4707 6.95225L59.2627 8.32825C59.2413 8.45625 59.172 8.52025 59.0547 8.52025H56.3667L55.9667 11.0963H58.3667C58.516 11.0963 58.5747 11.1603 58.5427 11.2883L58.3347 12.5843C58.3133 12.7123 58.2493 12.7763 58.1427 12.7763H55.6947L55.2627 15.4803H57.9187C58.0573 15.4803 58.116 15.5443 58.0947 15.6723L57.8707 17.0483C57.86 17.1763 57.796 17.2403 57.6787 17.2403H53.2627Z" fill="black"/>
<path d="M49.1423 17.3361C48.129 17.3361 47.3876 17.0267 46.9183 16.4081C46.449 15.7787 46.3103 14.8614 46.5023 13.6561L47.0783 10.0401C47.2596 8.8774 47.6223 8.02406 48.1663 7.48006C48.721 6.93606 49.489 6.66406 50.4703 6.66406C51.1636 6.66406 51.729 6.81873 52.1663 7.12806C52.6036 7.4374 52.897 7.8694 53.0463 8.42406C53.2063 8.97873 53.1956 9.62406 53.0143 10.3601C52.9823 10.4881 52.913 10.5521 52.8063 10.5521H51.2703C51.121 10.5521 51.0623 10.4881 51.0943 10.3601C51.2223 9.75206 51.2276 9.28273 51.1103 8.95206C50.993 8.61073 50.721 8.44006 50.2943 8.44006C49.9103 8.44006 49.617 8.5734 49.4143 8.84006C49.2223 9.09606 49.0783 9.5174 48.9823 10.1041L48.4063 13.7201C48.3103 14.3494 48.3316 14.8134 48.4703 15.1121C48.6196 15.4107 48.9023 15.5601 49.3183 15.5601C49.745 15.5601 50.0543 15.3841 50.2463 15.0321C50.4383 14.6801 50.5556 14.2161 50.5983 13.6401C50.609 13.5014 50.673 13.4321 50.7903 13.4321H52.3423C52.3956 13.4321 52.4383 13.4481 52.4703 13.4801C52.513 13.5121 52.529 13.5654 52.5183 13.6401C52.4543 14.7814 52.145 15.6827 51.5903 16.3441C51.0356 17.0054 50.2196 17.3361 49.1423 17.3361Z" fill="black"/>
<path d="M43.122 17.2403C42.9834 17.2403 42.9247 17.1763 42.946 17.0483L44.546 6.95225C44.578 6.82425 44.6474 6.76025 44.754 6.76025H46.29C46.4287 6.76025 46.4874 6.82425 46.466 6.95225L44.85 17.0483C44.8394 17.1763 44.7754 17.2403 44.658 17.2403H43.122Z" fill="black"/>
<path d="M36.4033 17.2403C36.2646 17.2403 36.206 17.1763 36.2273 17.0483L37.8273 6.95225C37.8593 6.82425 37.9286 6.76025 38.0353 6.76025H40.0193C41.0433 6.76025 41.7846 6.97359 42.2433 7.40025C42.702 7.81625 42.9313 8.48825 42.9313 9.41625C42.9313 9.89625 42.862 10.3603 42.7233 10.8083C42.5846 11.2563 42.382 11.6456 42.1153 11.9763C41.8486 12.3069 41.534 12.5416 41.1713 12.6803V12.6963L42.1153 17.0483C42.1366 17.1016 42.126 17.1496 42.0833 17.1923C42.0513 17.2243 42.0033 17.2403 41.9393 17.2403H40.3233C40.206 17.2403 40.1366 17.1763 40.1153 17.0483L39.3633 13.1123H38.7713L38.1313 17.0483C38.1206 17.1763 38.0566 17.2403 37.9393 17.2403H36.4033ZM39.0273 11.4643H39.5073C39.838 11.4643 40.11 11.3843 40.3233 11.2243C40.5366 11.0536 40.6966 10.8243 40.8033 10.5363C40.91 10.2376 40.9633 9.90159 40.9633 9.52825C40.9633 9.17625 40.8833 8.92025 40.7233 8.76025C40.5633 8.60025 40.3073 8.52025 39.9553 8.52025H39.4913L39.0273 11.4643Z" fill="black"/>
<path d="M30.1845 17.2403C30.0351 17.2403 29.9765 17.1763 30.0085 17.0483L31.6085 6.95225C31.6405 6.82425 31.7098 6.76025 31.8165 6.76025H33.5925C34.5525 6.76025 35.2671 6.97359 35.7365 7.40025C36.2058 7.81625 36.4405 8.46692 36.4405 9.35225C36.4405 10.2376 36.3018 11.0003 36.0245 11.6403C35.7471 12.2696 35.3471 12.7603 34.8245 13.1123C34.3125 13.4536 33.6885 13.6243 32.9525 13.6243H32.4725L31.9125 17.0483C31.9018 17.1763 31.8378 17.2403 31.7205 17.2403H30.1845ZM32.7445 11.8483H33.0805C33.3791 11.8483 33.6351 11.7523 33.8485 11.5603C34.0618 11.3683 34.2218 11.1016 34.3285 10.7603C34.4458 10.4189 34.5045 10.0189 34.5045 9.56025C34.5045 9.18692 34.4245 8.92025 34.2645 8.76025C34.1151 8.60025 33.8858 8.52025 33.5765 8.52025H33.2725L32.7445 11.8483Z" fill="black"/>
<defs>
<linearGradient id="paint0_linear_2322_15355" x1="24" y1="12" x2="100.389" y2="12" gradientUnits="userSpaceOnUse">
<stop stop-color="#00E5C4"/>
<stop offset="1" stop-color="#00E5C4" stop-opacity="0"/>
</linearGradient>
<clipPath id="clip0_2322_15355">
<rect width="16" height="16" fill="white" transform="translate(4 4)"/>
</clipPath>
</defs>
</svg>
