<svg width="296" height="24" viewBox="0 0 296 24" fill="none" xmlns="http://www.w3.org/2000/svg">
<path d="M0 4C0 1.79086 1.79086 0 4 0H24V24H4C1.79086 24 0 22.2091 0 20V4Z" fill="#00E5C4"/>
<g clip-path="url(#clip0_2322_15354)">
<path d="M12 4.6665C10.5496 4.6665 9.13174 5.0966 7.92578 5.90239C6.71982 6.70819 5.77989 7.8535 5.22485 9.19349C4.6698 10.5335 4.52458 12.008 4.80754 13.4305C5.0905 14.853 5.78893 16.1597 6.81451 17.1853C7.8401 18.2109 9.14677 18.9093 10.5693 19.1923C11.9918 19.4752 13.4663 19.33 14.8063 18.7749C16.1463 18.2199 17.2916 17.28 18.0974 16.074C18.9032 14.8681 19.3333 13.4502 19.3333 11.9998C19.3333 11.0368 19.1436 10.0832 18.7751 9.19349C18.4065 8.30377 17.8664 7.49535 17.1854 6.81439C16.5044 6.13342 15.696 5.59325 14.8063 5.22472C13.9166 4.85619 12.963 4.6665 12 4.6665Z" stroke="#111111" stroke-linecap="round" stroke-linejoin="round"/>
<path d="M9.97587 15.099L8.73083 11.2531L11.9999 8.87646L15.2689 11.2531L14.0239 15.099H9.97587Z" stroke="#111111" stroke-linecap="round" stroke-linejoin="round"/>
<path d="M14.8038 5.22168L12.0001 7.1114L9.19653 5.22168" stroke="#111111" stroke-linecap="round" stroke-linejoin="round"/>
<path d="M13.6942 19.1366L15.0885 16.2906L18.2722 15.8018" stroke="#111111" stroke-linecap="round" stroke-linejoin="round"/>
<path d="M19.3099 12.5925L17.076 10.3677L17.5552 7.21338" stroke="#111111" stroke-linecap="round" stroke-linejoin="round"/>
<path d="M12 7.11133V8.87654" stroke="#111111" stroke-linecap="round" stroke-linejoin="round"/>
<path d="M15.2692 11.2529L17.0761 10.3677" stroke="#111111" stroke-linecap="round" stroke-linejoin="round"/>
<path d="M4.69019 12.5925L6.92408 10.3677L6.44497 7.21338" stroke="#111111" stroke-linecap="round" stroke-linejoin="round"/>
<path d="M8.73088 11.2529L6.92395 10.3677" stroke="#111111" stroke-linecap="round" stroke-linejoin="round"/>
<path d="M14.0239 15.0986L15.0884 16.2902" stroke="#111111" stroke-linecap="round" stroke-linejoin="round"/>
<path d="M10.3057 19.1366L8.91143 16.2906L5.72778 15.8018" stroke="#111111" stroke-linecap="round" stroke-linejoin="round"/>
<path d="M9.9761 15.0986L8.91162 16.2902" stroke="#111111" stroke-linecap="round" stroke-linejoin="round"/>
</g>
<mask id="path-14-inside-1_2322_15354" fill="white">
<path d="M24 0H100.389V24H24V0Z"/>
</mask>
<path d="M24 0V1H100.389V0V-1H24V0ZM100.389 24V23H24V24V25H100.389V24Z" fill="url(#paint0_linear_2322_15354)" mask="url(#path-14-inside-1_2322_15354)"/>
<path d="M89.2487 17.2403C89.11 17.2403 89.0514 17.1763 89.0727 17.0483L90.4327 8.52025H88.8167C88.678 8.52025 88.6247 8.45625 88.6567 8.32825L88.8807 6.95225C88.902 6.82425 88.966 6.76025 89.0727 6.76025H94.2087C94.3474 6.76025 94.406 6.82425 94.3847 6.95225L94.1607 8.32825C94.1394 8.45625 94.07 8.52025 93.9527 8.52025H92.3527L90.9927 17.0483C90.9714 17.1763 90.902 17.2403 90.7847 17.2403H89.2487Z" fill="black"/>
<path d="M84.2251 17.3361C83.2331 17.3361 82.5345 17.0587 82.1291 16.5041C81.7238 15.9387 81.6331 15.1654 81.8571 14.1841C81.8891 14.0561 81.9531 13.9921 82.0491 13.9921H83.5691C83.6971 13.9921 83.7505 14.0561 83.7291 14.1841C83.6438 14.6534 83.6491 15.0107 83.7451 15.2561C83.8411 15.5014 84.0438 15.6241 84.3531 15.6241C84.6518 15.6241 84.8758 15.5281 85.0251 15.3361C85.1851 15.1334 85.2651 14.8347 85.2651 14.4401C85.2651 14.1734 85.2118 13.9281 85.1051 13.7041C85.0091 13.4801 84.8491 13.2507 84.6251 13.0161L83.5371 11.8961C83.1958 11.5441 82.9505 11.1814 82.8011 10.8081C82.6518 10.4347 82.5771 9.99206 82.5771 9.48006C82.5771 8.6054 82.8225 7.9174 83.3131 7.41606C83.8038 6.91473 84.4971 6.66406 85.3931 6.66406C86.3531 6.66406 87.0411 6.93073 87.4571 7.46406C87.8731 7.9974 87.9851 8.7494 87.7931 9.72006C87.7611 9.85873 87.6918 9.92806 87.5851 9.92806H86.0331C85.9051 9.92806 85.8518 9.85873 85.8731 9.72006C85.9691 9.28273 85.9638 8.95206 85.8571 8.72806C85.7611 8.4934 85.5745 8.37606 85.2971 8.37606C85.0518 8.37606 84.8598 8.4614 84.7211 8.63206C84.5931 8.80273 84.5291 9.03206 84.5291 9.32006C84.5291 9.58673 84.5771 9.81606 84.6731 10.0081C84.7691 10.1894 84.9185 10.3921 85.1211 10.6161L86.2411 11.7681C86.5931 12.1307 86.8438 12.4934 86.9931 12.8561C87.1531 13.2081 87.2331 13.6507 87.2331 14.1841C87.2331 15.1761 86.9665 15.9494 86.4331 16.5041C85.8998 17.0587 85.1638 17.3361 84.2251 17.3361Z" fill="black"/>
<path d="M77.6419 17.3361C76.6285 17.3361 75.8925 17.0267 75.4339 16.4081C74.9752 15.7787 74.8365 14.8721 75.0179 13.6881L75.5939 10.0401C75.7859 8.88806 76.1539 8.04006 76.6979 7.49606C77.2419 6.9414 78.0205 6.66406 79.0339 6.66406C80.0365 6.66406 80.7725 6.97873 81.2419 7.60806C81.7112 8.22673 81.8499 9.1334 81.6579 10.3281L81.0819 13.9601C80.8899 15.1121 80.5165 15.9654 79.9619 16.5201C79.4179 17.0641 78.6445 17.3361 77.6419 17.3361ZM77.8339 15.5601C78.2285 15.5601 78.5272 15.4321 78.7299 15.1761C78.9325 14.9094 79.0819 14.4827 79.1779 13.8961L79.7539 10.2801C79.8499 9.64006 79.8232 9.17606 79.6739 8.88806C79.5352 8.5894 79.2579 8.44006 78.8419 8.44006C78.4579 8.44006 78.1592 8.5734 77.9459 8.84006C77.7432 9.09606 77.5939 9.5174 77.4979 10.1041L76.9219 13.7201C76.8152 14.3601 76.8365 14.8294 76.9859 15.1281C77.1459 15.4161 77.4285 15.5601 77.8339 15.5601Z" fill="black"/>
<path d="M70.5794 17.3361C69.566 17.3361 68.83 17.0267 68.3714 16.4081C67.9127 15.7787 67.774 14.8721 67.9554 13.6881L68.5314 10.0401C68.7234 8.88806 69.0914 8.04006 69.6354 7.49606C70.1794 6.9414 70.958 6.66406 71.9714 6.66406C72.974 6.66406 73.71 6.97873 74.1794 7.60806C74.6487 8.22673 74.7874 9.1334 74.5954 10.3281L74.0194 13.9601C73.8274 15.1121 73.454 15.9654 72.8994 16.5201C72.3554 17.0641 71.582 17.3361 70.5794 17.3361ZM70.7714 15.5601C71.166 15.5601 71.4647 15.4321 71.6674 15.1761C71.87 14.9094 72.0194 14.4827 72.1154 13.8961L72.6914 10.2801C72.7874 9.64006 72.7607 9.17606 72.6114 8.88806C72.4727 8.5894 72.1954 8.44006 71.7794 8.44006C71.3954 8.44006 71.0967 8.5734 70.8834 8.84006C70.6807 9.09606 70.5314 9.5174 70.4354 10.1041L69.8594 13.7201C69.7527 14.3601 69.774 14.8294 69.9234 15.1281C70.0834 15.4161 70.366 15.5601 70.7714 15.5601Z" fill="black"/>
<path d="M61.1376 17.2403C60.9883 17.2403 60.9296 17.1763 60.9616 17.0483L62.5616 6.95225C62.5936 6.82425 62.6629 6.76025 62.7696 6.76025H64.7536C65.6603 6.76025 66.3376 6.94159 66.7856 7.30425C67.2443 7.66692 67.4736 8.22159 67.4736 8.96825C67.4736 9.64025 67.3296 10.2109 67.0416 10.6803C66.7536 11.1389 66.3269 11.4856 65.7616 11.7203V11.7523C66.1883 11.9016 66.5083 12.1416 66.7216 12.4723C66.9456 12.7923 67.0576 13.2403 67.0576 13.8163C67.0576 14.4989 66.9189 15.1016 66.6416 15.6243C66.3749 16.1363 65.9696 16.5363 65.4256 16.8243C64.8923 17.1016 64.2363 17.2403 63.4576 17.2403H61.1376ZM63.1056 15.5923H63.6496C64.1509 15.5923 64.5189 15.4216 64.7536 15.0803C64.9989 14.7389 65.1216 14.3016 65.1216 13.7683C65.1216 13.4056 65.0363 13.1283 64.8656 12.9363C64.7056 12.7336 64.4443 12.6323 64.0816 12.6323H63.5856L63.1056 15.5923ZM63.8096 11.1283H64.2896C64.5669 11.1283 64.7963 11.0483 64.9776 10.8883C65.1696 10.7283 65.3083 10.5149 65.3936 10.2483C65.4896 9.97092 65.5376 9.67759 65.5376 9.36825C65.5376 9.02692 65.4629 8.78159 65.3136 8.63225C65.1749 8.48292 64.9456 8.40825 64.6256 8.40825H64.2416L63.8096 11.1283Z" fill="black"/>
<path d="M53.2627 17.2403C53.124 17.2403 53.0653 17.1763 53.0867 17.0483L54.6867 6.95225C54.7187 6.82425 54.788 6.76025 54.8947 6.76025H59.2947C59.444 6.76025 59.5027 6.82425 59.4707 6.95225L59.2627 8.32825C59.2413 8.45625 59.172 8.52025 59.0547 8.52025H56.3667L55.9667 11.0963H58.3667C58.516 11.0963 58.5747 11.1603 58.5427 11.2883L58.3347 12.5843C58.3133 12.7123 58.2493 12.7763 58.1427 12.7763H55.6947L55.2627 15.4803H57.9187C58.0573 15.4803 58.116 15.5443 58.0947 15.6723L57.8707 17.0483C57.86 17.1763 57.796 17.2403 57.6787 17.2403H53.2627Z" fill="black"/>
<path d="M49.1423 17.3361C48.129 17.3361 47.3876 17.0267 46.9183 16.4081C46.449 15.7787 46.3103 14.8614 46.5023 13.6561L47.0783 10.0401C47.2596 8.8774 47.6223 8.02406 48.1663 7.48006C48.721 6.93606 49.489 6.66406 50.4703 6.66406C51.1636 6.66406 51.729 6.81873 52.1663 7.12806C52.6036 7.4374 52.897 7.8694 53.0463 8.42406C53.2063 8.97873 53.1956 9.62406 53.0143 10.3601C52.9823 10.4881 52.913 10.5521 52.8063 10.5521H51.2703C51.121 10.5521 51.0623 10.4881 51.0943 10.3601C51.2223 9.75206 51.2276 9.28273 51.1103 8.95206C50.993 8.61073 50.721 8.44006 50.2943 8.44006C49.9103 8.44006 49.617 8.5734 49.4143 8.84006C49.2223 9.09606 49.0783 9.5174 48.9823 10.1041L48.4063 13.7201C48.3103 14.3494 48.3316 14.8134 48.4703 15.1121C48.6196 15.4107 48.9023 15.5601 49.3183 15.5601C49.745 15.5601 50.0543 15.3841 50.2463 15.0321C50.4383 14.6801 50.5556 14.2161 50.5983 13.6401C50.609 13.5014 50.673 13.4321 50.7903 13.4321H52.3423C52.3956 13.4321 52.4383 13.4481 52.4703 13.4801C52.513 13.5121 52.529 13.5654 52.5183 13.6401C52.4543 14.7814 52.145 15.6827 51.5903 16.3441C51.0356 17.0054 50.2196 17.3361 49.1423 17.3361Z" fill="black"/>
<path d="M43.122 17.2403C42.9834 17.2403 42.9247 17.1763 42.946 17.0483L44.546 6.95225C44.578 6.82425 44.6474 6.76025 44.754 6.76025H46.29C46.4287 6.76025 46.4874 6.82425 46.466 6.95225L44.85 17.0483C44.8394 17.1763 44.7754 17.2403 44.658 17.2403H43.122Z" fill="black"/>
<path d="M36.4033 17.2403C36.2646 17.2403 36.206 17.1763 36.2273 17.0483L37.8273 6.95225C37.8593 6.82425 37.9286 6.76025 38.0353 6.76025H40.0193C41.0433 6.76025 41.7846 6.97359 42.2433 7.40025C42.702 7.81625 42.9313 8.48825 42.9313 9.41625C42.9313 9.89625 42.862 10.3603 42.7233 10.8083C42.5846 11.2563 42.382 11.6456 42.1153 11.9763C41.8486 12.3069 41.534 12.5416 41.1713 12.6803V12.6963L42.1153 17.0483C42.1366 17.1016 42.126 17.1496 42.0833 17.1923C42.0513 17.2243 42.0033 17.2403 41.9393 17.2403H40.3233C40.206 17.2403 40.1366 17.1763 40.1153 17.0483L39.3633 13.1123H38.7713L38.1313 17.0483C38.1206 17.1763 38.0566 17.2403 37.9393 17.2403H36.4033ZM39.0273 11.4643H39.5073C39.838 11.4643 40.11 11.3843 40.3233 11.2243C40.5366 11.0536 40.6966 10.8243 40.8033 10.5363C40.91 10.2376 40.9633 9.90159 40.9633 9.52825C40.9633 9.17625 40.8833 8.92025 40.7233 8.76025C40.5633 8.60025 40.3073 8.52025 39.9553 8.52025H39.4913L39.0273 11.4643Z" fill="black"/>
<path d="M30.1845 17.2403C30.0351 17.2403 29.9765 17.1763 30.0085 17.0483L31.6085 6.95225C31.6405 6.82425 31.7098 6.76025 31.8165 6.76025H33.5925C34.5525 6.76025 35.2671 6.97359 35.7365 7.40025C36.2058 7.81625 36.4405 8.46692 36.4405 9.35225C36.4405 10.2376 36.3018 11.0003 36.0245 11.6403C35.7471 12.2696 35.3471 12.7603 34.8245 13.1123C34.3125 13.4536 33.6885 13.6243 32.9525 13.6243H32.4725L31.9125 17.0483C31.9018 17.1763 31.8378 17.2403 31.7205 17.2403H30.1845ZM32.7445 11.8483H33.0805C33.3791 11.8483 33.6351 11.7523 33.8485 11.5603C34.0618 11.3683 34.2218 11.1016 34.3285 10.7603C34.4458 10.4189 34.5045 10.0189 34.5045 9.56025C34.5045 9.18692 34.4245 8.92025 34.2645 8.76025C34.1151 8.60025 33.8858 8.52025 33.5765 8.52025H33.2725L32.7445 11.8483Z" fill="black"/>
<rect x="179.082" y="0.5" width="46.8868" height="23" rx="11.5" stroke="#F3F3F3"/>
<path d="M192.71 15.3349C192.624 15.3349 192.58 15.2915 192.58 15.2049V14.2649C192.58 14.1782 192.624 14.1349 192.71 14.1349H194.2V10.2249L192.79 10.6649C192.697 10.6915 192.65 10.6582 192.65 10.5649V9.64486C192.65 9.57153 192.684 9.52153 192.75 9.49486L195.04 8.76486C195.067 8.75153 195.094 8.74486 195.12 8.74486C195.154 8.7382 195.184 8.73486 195.21 8.73486H195.47C195.557 8.73486 195.6 8.7782 195.6 8.86486V14.1349H196.96C197.04 14.1349 197.08 14.1782 197.08 14.2649V15.2049C197.08 15.2915 197.04 15.3349 196.96 15.3349H192.71Z" fill="black"/>
<path d="M187.002 15.335C186.915 15.335 186.872 15.2917 186.872 15.205V14.435C186.872 14.375 186.892 14.3217 186.932 14.275C187.065 14.1284 187.165 13.965 187.232 13.785C187.298 13.605 187.332 13.4117 187.332 13.205V10.655C187.332 10.2284 187.402 9.86837 187.542 9.57504C187.682 9.27504 187.905 9.04837 188.212 8.89504C188.518 8.74171 188.912 8.66504 189.392 8.66504C189.845 8.66504 190.225 8.73504 190.532 8.87504C190.845 9.00837 191.078 9.21504 191.232 9.49504C191.385 9.77504 191.448 10.135 191.422 10.575C191.422 10.6617 191.378 10.705 191.292 10.705H190.272C190.185 10.705 190.142 10.6617 190.142 10.575C190.148 10.4284 190.132 10.2984 190.092 10.185C190.058 10.0717 189.988 9.98504 189.882 9.92504C189.782 9.85837 189.638 9.82504 189.452 9.82504C189.185 9.82504 188.995 9.89837 188.882 10.045C188.768 10.1917 188.712 10.435 188.712 10.775V13.045C188.712 13.2984 188.678 13.5117 188.612 13.685C188.552 13.8584 188.462 14.0084 188.342 14.135H191.462C191.548 14.135 191.592 14.1784 191.592 14.265V15.205C191.592 15.2917 191.548 15.335 191.462 15.335H187.002ZM186.712 12.605C186.625 12.605 186.582 12.565 186.582 12.485V11.655C186.582 11.5684 186.625 11.525 186.712 11.525H190.112C190.198 11.525 190.242 11.5684 190.242 11.655V12.485C190.242 12.565 190.198 12.605 190.112 12.605H186.712Z" fill="black"/>
<path d="M213.972 15.215C213.932 15.215 213.905 15.2016 213.892 15.175C213.878 15.1483 213.885 15.1216 213.912 15.095L215.642 12.705L214.032 10.455C214.005 10.4216 213.998 10.395 214.012 10.375C214.025 10.3483 214.052 10.335 214.092 10.335H214.872C214.925 10.335 214.965 10.355 214.992 10.395L215.692 11.405C215.772 11.5183 215.852 11.6383 215.932 11.765C216.018 11.8916 216.098 12.0116 216.172 12.125H216.182C216.268 11.9983 216.358 11.8683 216.452 11.735C216.545 11.6016 216.635 11.4716 216.722 11.345L217.392 10.395C217.418 10.355 217.458 10.335 217.512 10.335H218.242C218.282 10.335 218.308 10.3483 218.322 10.375C218.335 10.395 218.328 10.4216 218.302 10.455L216.692 12.675L218.442 15.095C218.468 15.1216 218.475 15.1483 218.462 15.175C218.448 15.2016 218.422 15.215 218.382 15.215H217.602C217.548 15.215 217.508 15.195 217.482 15.155L216.812 14.215C216.705 14.0616 216.595 13.905 216.482 13.745C216.375 13.585 216.268 13.4283 216.162 13.275H216.152C216.052 13.4283 215.948 13.585 215.842 13.745C215.735 13.905 215.628 14.0616 215.522 14.215L214.862 15.155C214.835 15.195 214.795 15.215 214.742 15.215H213.972Z" fill="black"/>
<path d="M212.43 15.2148C212.39 15.2148 212.364 15.2015 212.35 15.1748C212.337 15.1482 212.324 15.1148 212.31 15.0748C212.304 15.0215 212.287 14.9082 212.26 14.7348C212.24 14.5548 212.227 14.3948 212.22 14.2548L212.19 13.8748V11.8848C212.19 11.5515 212.124 11.3148 211.99 11.1748C211.857 11.0348 211.624 10.9648 211.29 10.9648C210.69 10.9648 210.39 11.1715 210.39 11.5848C210.39 11.6515 210.36 11.6848 210.3 11.6848H209.64C209.574 11.6848 209.537 11.6215 209.53 11.4948C209.497 11.1148 209.644 10.8082 209.97 10.5748C210.304 10.3348 210.754 10.2148 211.32 10.2148C211.9 10.2148 212.33 10.3515 212.61 10.6248C212.897 10.8982 213.04 11.3115 213.04 11.8648V14.0048C213.04 14.2382 213.047 14.4482 213.06 14.6348C213.074 14.8148 213.09 14.9715 213.11 15.1048C213.124 15.1782 213.09 15.2148 213.01 15.2148H212.43ZM210.52 15.3348C210.134 15.3348 209.837 15.2182 209.63 14.9848C209.43 14.7515 209.33 14.4115 209.33 13.9648C209.33 13.6182 209.397 13.3348 209.53 13.1148C209.67 12.8948 209.89 12.7248 210.19 12.6048C210.497 12.4848 210.904 12.4048 211.41 12.3648L212.35 12.2848V12.9348L211.39 13.0148C210.93 13.0548 210.614 13.1382 210.44 13.2648C210.267 13.3915 210.18 13.6048 210.18 13.9048C210.18 14.1315 210.227 14.3015 210.32 14.4148C210.414 14.5282 210.554 14.5848 210.74 14.5848C210.96 14.5848 211.19 14.5115 211.43 14.3648C211.67 14.2115 211.987 13.9315 212.38 13.5248V14.2748C212.147 14.5282 211.927 14.7348 211.72 14.8948C211.52 15.0482 211.324 15.1582 211.13 15.2248C210.937 15.2982 210.734 15.3348 210.52 15.3348Z" fill="black"/>
<path d="M201.253 15.2148C201.186 15.2148 201.153 15.1815 201.153 15.1148V11.5548C201.153 11.3748 201.146 11.1882 201.133 10.9948C201.126 10.7948 201.11 10.6148 201.083 10.4548C201.07 10.3748 201.106 10.3348 201.193 10.3348H201.793C201.853 10.3348 201.886 10.3582 201.893 10.4048C201.906 10.5048 201.923 10.6115 201.943 10.7248C201.963 10.8382 201.976 10.9548 201.983 11.0748C202.283 10.7748 202.566 10.5582 202.833 10.4248C203.1 10.2848 203.386 10.2148 203.693 10.2148C204.033 10.2148 204.306 10.2948 204.513 10.4548C204.726 10.6082 204.876 10.8382 204.963 11.1448C205.283 10.8182 205.58 10.5815 205.853 10.4348C206.126 10.2882 206.423 10.2148 206.743 10.2148C207.19 10.2148 207.526 10.3548 207.753 10.6348C207.986 10.9148 208.103 11.3282 208.103 11.8748V15.1148C208.103 15.1815 208.07 15.2148 208.003 15.2148H207.353C207.286 15.2148 207.253 15.1815 207.253 15.1148V11.9248C207.253 11.6048 207.193 11.3648 207.073 11.2048C206.96 11.0448 206.78 10.9648 206.533 10.9648C206.313 10.9648 206.086 11.0348 205.853 11.1748C205.626 11.3082 205.36 11.5215 205.053 11.8148V15.1148C205.053 15.1815 205.02 15.2148 204.953 15.2148H204.303C204.236 15.2148 204.203 15.1815 204.203 15.1148V11.9248C204.203 11.6048 204.143 11.3648 204.023 11.2048C203.91 11.0448 203.73 10.9648 203.483 10.9648C203.263 10.9648 203.036 11.0348 202.803 11.1748C202.576 11.3082 202.31 11.5215 202.003 11.8148V15.1148C202.003 15.1815 201.97 15.2148 201.903 15.2148H201.253Z" fill="black"/>
<rect x="230.468" width="65.5317" height="24" rx="12" fill="#F3F3F3"/>
<path d="M240.052 10.061C240.003 10.5676 239.969 11.4643 240.274 11.8459C240.274 11.8459 240.131 10.8609 241.419 9.62513C241.937 9.12763 242.057 8.45097 241.876 7.94348C241.773 7.65598 241.585 7.41848 241.422 7.25265C241.327 7.15515 241.4 6.99432 241.539 7.00015C242.377 7.03682 243.735 7.26515 244.313 8.68514C244.566 9.30846 244.585 9.95262 244.464 10.6076C244.388 11.0259 244.115 11.9559 244.736 12.0701C245.179 12.1518 245.393 11.8068 245.489 11.5584C245.529 11.4551 245.668 11.4293 245.743 11.5118C246.491 12.3459 246.555 13.3284 246.4 14.1742C246.101 15.8092 244.411 16.9992 242.733 16.9992C240.636 16.9992 238.968 15.8234 238.535 13.6951C238.36 12.8359 238.449 11.1359 239.801 9.93596C239.901 9.84596 240.065 9.92596 240.052 10.061Z" fill="url(#paint1_radial_2322_15354)"/>
<path d="M243.499 13.1182C242.726 12.1432 243.072 11.0308 243.262 10.5874C243.287 10.5291 243.219 10.4741 243.166 10.5099C242.833 10.7316 242.152 11.2533 241.835 11.9874C241.406 12.9799 241.437 13.4657 241.691 14.0591C241.844 14.4166 241.666 14.4924 241.577 14.5057C241.49 14.5191 241.41 14.4624 241.346 14.4032C241.164 14.2324 241.032 14.0099 240.969 13.7699C240.955 13.7182 240.886 13.7041 240.855 13.7466C240.617 14.0691 240.494 14.5865 240.488 14.9524C240.469 16.0832 241.422 16.9999 242.575 16.9999C244.028 16.9999 245.086 15.4249 244.252 14.1082C244.009 13.7249 243.781 13.4741 243.499 13.1182Z" fill="url(#paint2_radial_2322_15354)"/>
<path d="M263.773 15.395C262.967 15.395 262.35 15.185 261.923 14.765C261.497 14.3383 261.283 13.7316 261.283 12.945V11.055C261.283 10.2683 261.497 9.66498 261.923 9.24498C262.35 8.81831 262.967 8.60498 263.773 8.60498C264.587 8.60498 265.207 8.81831 265.633 9.24498C266.06 9.66498 266.273 10.2683 266.273 11.055V12.945C266.273 13.7316 266.06 14.3383 265.633 14.765C265.207 15.185 264.587 15.395 263.773 15.395ZM263.773 14.185C264.127 14.185 264.397 14.0816 264.583 13.875C264.777 13.6616 264.873 13.3516 264.873 12.945V11.055C264.873 10.6483 264.777 10.3416 264.583 10.135C264.397 9.92165 264.127 9.81498 263.773 9.81498C263.42 9.81498 263.15 9.92165 262.963 10.135C262.777 10.3416 262.683 10.6483 262.683 11.055V12.945C262.683 13.3516 262.777 13.6616 262.963 13.875C263.15 14.0816 263.42 14.185 263.773 14.185Z" fill="black"/>
<path d="M255.817 15.275C255.73 15.275 255.687 15.2316 255.687 15.145V14.295C255.687 13.9816 255.744 13.705 255.857 13.465C255.977 13.2183 256.13 12.9983 256.317 12.805C256.51 12.6116 256.72 12.4383 256.947 12.285C257.174 12.125 257.4 11.9783 257.627 11.845C257.86 11.705 258.07 11.5716 258.257 11.445C258.45 11.3116 258.604 11.175 258.717 11.035C258.837 10.8883 258.897 10.7283 258.897 10.555V10.395C258.897 10.1883 258.824 10.035 258.677 9.93498C258.537 9.83498 258.314 9.78498 258.007 9.78498C257.707 9.78498 257.484 9.84831 257.337 9.97498C257.19 10.095 257.12 10.2683 257.127 10.495C257.127 10.5816 257.084 10.625 256.997 10.625H255.927C255.854 10.625 255.81 10.5816 255.797 10.495C255.784 10.075 255.867 9.72498 256.047 9.44498C256.227 9.16498 256.49 8.95498 256.837 8.81498C257.19 8.67498 257.607 8.60498 258.087 8.60498C258.82 8.60498 259.37 8.75165 259.737 9.04498C260.11 9.33165 260.297 9.77831 260.297 10.385C260.297 10.705 260.24 10.985 260.127 11.225C260.02 11.465 259.874 11.675 259.687 11.855C259.507 12.035 259.307 12.1983 259.087 12.345C258.867 12.485 258.647 12.6183 258.427 12.745C258.214 12.865 258.014 12.9916 257.827 13.125C257.647 13.2516 257.5 13.3916 257.387 13.545C257.28 13.6983 257.227 13.875 257.227 14.075H260.137C260.224 14.075 260.267 14.1183 260.267 14.205V15.145C260.267 15.2316 260.224 15.275 260.137 15.275H255.817Z" fill="black"/>
<path d="M250.598 15.2748C250.512 15.2748 250.468 15.2315 250.468 15.1448V14.2048C250.468 14.1181 250.512 14.0748 250.598 14.0748H252.088V10.1648L250.678 10.6048C250.585 10.6315 250.538 10.5981 250.538 10.5048V9.58481C250.538 9.51147 250.572 9.46147 250.638 9.4348L252.928 8.7048C252.955 8.69147 252.982 8.6848 253.008 8.6848C253.042 8.67814 253.072 8.6748 253.098 8.6748H253.358C253.445 8.6748 253.488 8.71814 253.488 8.8048V14.0748H254.848C254.928 14.0748 254.968 14.1181 254.968 14.2048V15.1448C254.968 15.2315 254.928 15.2748 254.848 15.2748H250.598Z" fill="black"/>
<path d="M286.15 15.475C285.55 15.475 285.1 15.345 284.8 15.085C284.5 14.8183 284.35 14.4216 284.35 13.895C284.35 13.835 284.383 13.805 284.45 13.805H285.11C285.17 13.805 285.2 13.8316 285.2 13.885C285.2 14.185 285.273 14.4016 285.42 14.535C285.573 14.6683 285.82 14.735 286.16 14.735C286.487 14.735 286.733 14.6816 286.9 14.575C287.067 14.4616 287.15 14.3016 287.15 14.095C287.15 13.9416 287.103 13.815 287.01 13.715C286.917 13.6083 286.77 13.5116 286.57 13.425L285.43 12.955C285.063 12.8016 284.803 12.6283 284.65 12.435C284.497 12.2416 284.42 11.9916 284.42 11.685C284.42 11.245 284.56 10.915 284.84 10.695C285.12 10.4683 285.537 10.355 286.09 10.355C286.657 10.355 287.097 10.475 287.41 10.715C287.723 10.9483 287.88 11.2816 287.88 11.715C287.88 11.775 287.847 11.805 287.78 11.805H287.12C287.053 11.805 287.02 11.7516 287.02 11.645C287.02 11.4716 286.94 11.3383 286.78 11.245C286.62 11.145 286.4 11.095 286.12 11.095C285.833 11.095 285.62 11.145 285.48 11.245C285.34 11.3383 285.27 11.485 285.27 11.685C285.27 11.8316 285.307 11.9416 285.38 12.015C285.46 12.0883 285.617 12.175 285.85 12.275L286.99 12.755C287.343 12.9016 287.6 13.075 287.76 13.275C287.92 13.475 288 13.7316 288 14.045C288 14.505 287.84 14.8583 287.52 15.105C287.2 15.3516 286.743 15.475 286.15 15.475Z" fill="black"/>
<path d="M282.432 15.4748C282.092 15.4748 281.819 15.4181 281.612 15.3048C281.412 15.1848 281.266 15.0081 281.172 14.7748C281.086 14.5415 281.042 14.2515 281.042 13.9048V11.2048H280.272C280.206 11.2048 280.172 11.1715 280.172 11.1048V10.5748C280.172 10.5081 280.206 10.4748 280.272 10.4748H281.062L281.172 9.2748C281.179 9.20814 281.216 9.1748 281.282 9.1748H281.782C281.849 9.1748 281.882 9.20814 281.882 9.2748L281.892 10.4748H283.382C283.449 10.4748 283.482 10.5081 283.482 10.5748V11.1048C283.482 11.1715 283.449 11.2048 283.382 11.2048H281.892V13.8848C281.892 14.1981 281.946 14.4181 282.052 14.5448C282.166 14.6715 282.356 14.7348 282.622 14.7348C282.756 14.7348 282.889 14.7215 283.022 14.6948C283.156 14.6615 283.272 14.6215 283.372 14.5748C283.452 14.5415 283.492 14.5648 283.492 14.6448V15.1948C283.492 15.2481 283.466 15.2848 283.412 15.3048C283.292 15.3515 283.152 15.3915 282.992 15.4248C282.832 15.4581 282.646 15.4748 282.432 15.4748Z" fill="black"/>
<path d="M277.495 15.475C276.855 15.475 276.361 15.325 276.015 15.025C275.675 14.725 275.505 14.2816 275.505 13.695V12.295C275.505 11.6616 275.675 11.1816 276.015 10.855C276.355 10.5216 276.848 10.355 277.495 10.355C278.141 10.355 278.631 10.5183 278.965 10.845C279.305 11.165 279.475 11.6316 279.475 12.245V13.025C279.475 13.0916 279.441 13.125 279.375 13.125H276.355V13.445C276.355 13.8916 276.448 14.2183 276.635 14.425C276.821 14.625 277.125 14.725 277.545 14.725C277.858 14.725 278.098 14.675 278.265 14.575C278.438 14.4683 278.525 14.315 278.525 14.115C278.525 14.0416 278.561 14.005 278.635 14.005H279.285C279.338 14.005 279.371 14.035 279.385 14.095C279.411 14.5216 279.255 14.8583 278.915 15.105C278.575 15.3516 278.101 15.475 277.495 15.475ZM276.355 12.395H278.625V12.335C278.625 11.915 278.531 11.605 278.345 11.405C278.158 11.205 277.878 11.105 277.505 11.105C277.118 11.105 276.828 11.2083 276.635 11.415C276.448 11.6216 276.355 11.9316 276.355 12.345V12.395Z" fill="black"/>
<path d="M272.203 15.4749C271.99 15.4749 271.787 15.4616 271.593 15.4349C271.407 15.4082 271.207 15.3782 270.993 15.3449C270.787 15.3116 270.547 15.2882 270.273 15.2749V8.6249C270.273 8.55824 270.307 8.5249 270.373 8.5249H271.023C271.09 8.5249 271.123 8.55824 271.123 8.6249V14.6249C271.277 14.6516 271.44 14.6749 271.613 14.6949C271.793 14.7149 271.95 14.7249 272.083 14.7249C272.537 14.7249 272.867 14.6116 273.073 14.3849C273.287 14.1582 273.393 13.8182 273.393 13.3649V12.2649C273.393 11.8649 273.323 11.5716 273.183 11.3849C273.05 11.1982 272.847 11.1049 272.573 11.1049C272.34 11.1049 272.103 11.1749 271.863 11.3149C271.623 11.4482 271.313 11.6849 270.933 12.0249L270.973 11.1949C271.287 10.9016 271.583 10.6882 271.863 10.5549C272.15 10.4216 272.447 10.3549 272.753 10.3549C273.24 10.3549 273.61 10.5082 273.863 10.8149C274.117 11.1216 274.243 11.5882 274.243 12.2149V13.4449C274.243 14.1116 274.073 14.6182 273.733 14.9649C273.4 15.3049 272.89 15.4749 272.203 15.4749Z" fill="black"/>
<defs>
<linearGradient id="paint0_linear_2322_15354" x1="24" y1="12" x2="100.389" y2="12" gradientUnits="userSpaceOnUse">
<stop stop-color="#00E5C4"/>
<stop offset="1" stop-color="#00E5C4" stop-opacity="0"/>
</linearGradient>
<radialGradient id="paint1_radial_2322_15354" cx="0" cy="0" r="1" gradientUnits="userSpaceOnUse" gradientTransform="translate(242.318 17.0251) rotate(-179.756) scale(6.00137 9.65158)">
<stop offset="0.3144" stop-color="#FF9800"/>
<stop offset="0.6616" stop-color="#FF6D00"/>
<stop offset="0.9715" stop-color="#F44336"/>
</radialGradient>
<radialGradient id="paint2_radial_2322_15354" cx="0" cy="0" r="1" gradientUnits="userSpaceOnUse" gradientTransform="translate(242.655 11.1715) rotate(90.5904) scale(6.15464 4.72561)">
<stop offset="0.2141" stop-color="#FFF176"/>
<stop offset="0.3275" stop-color="#FFF27D"/>
<stop offset="0.4868" stop-color="#FFF48F"/>
<stop offset="0.6722" stop-color="#FFF7AD"/>
<stop offset="0.7931" stop-color="#FFF9C4"/>
<stop offset="0.8221" stop-color="#FFF8BD" stop-opacity="0.804"/>
<stop offset="0.8627" stop-color="#FFF6AB" stop-opacity="0.529"/>
<stop offset="0.9101" stop-color="#FFF38D" stop-opacity="0.2088"/>
<stop offset="0.9409" stop-color="#FFF176" stop-opacity="0"/>
</radialGradient>
<clipPath id="clip0_2322_15354">
<rect width="16" height="16" fill="white" transform="translate(4 4)"/>
</clipPath>
</defs>
</svg>
