<svg width="22" height="22" viewBox="0 0 22 22" fill="none" xmlns="http://www.w3.org/2000/svg">
<path fill-rule="evenodd" clip-rule="evenodd" d="M3.36422 3.36405C7.58189 -0.853615 14.4201 -0.853615 18.6377 3.36405C22.8554 7.58171 22.8554 14.4199 18.6377 18.6376C14.4201 22.8552 7.58189 22.8552 3.36422 18.6376C-0.853437 14.4199 -0.853437 7.58171 3.36422 3.36405ZM11.5823 20.5416C11.8675 15.716 15.7171 11.8664 20.5427 11.5811C20.2681 16.4115 16.4127 20.2669 11.5823 20.5416ZM10.3774 1.44106C10.2421 3.76636 9.25594 5.96059 7.60694 7.60562C5.96503 9.25291 3.77299 10.2364 1.45087 10.3676C1.74035 5.56261 5.57242 1.73054 10.3774 1.44106ZM1.4421 11.6235C1.58074 13.948 2.56636 16.1411 4.21255 17.7881C5.86943 19.4281 8.07041 20.4033 10.3983 20.5289C10.6861 15.043 15.0693 10.6598 20.5552 10.372C20.2787 5.54476 16.4262 1.69227 11.599 1.41575C11.4644 4.07164 10.3433 6.58165 8.45519 8.45429C6.59527 10.3494 4.09353 11.4799 1.4421 11.6235Z" fill="black"/>
</svg>
